# xmcd CD database file
# Copyright (C) 1997 Ti Kan
#
# Track frame offsets:
#  187
#  15112
#  29425
#  50232
#  64932
#  79230
#  94340
#  109460
#  129417
#  143722
#
# Disc length: 2108 seconds
#
# Revision: 1
# Processed by: cddbd v1.4b41PL1 Copyright (c) Steve Scherf et al.
# Submitted via: CDWizzard Release:4.32
#
DISCID=89083a0a
DTITLE=Bellamy Brothers, The - Rebels Without A Clue
DYEAR=1900
DGENRE=
TTITLE0=Rebels Without A Clue
TTITLE1=I'll Help You Hurt Him
TTITLE2=The Fountain Of Middle Age
TTITLE3=Stayin' In Love
TTITLE4=Get Your Priorities In Line
TTITLE5=Big Love
TTITLE6=When The Music Meant Everything
TTITLE7=The Courthouse
TTITLE8=The Andy Griffith Show
TTITLE9=A Little Naive
EXTD=
EXTT0=
EXTT1=
EXTT2=
EXTT3=
EXTT4=
EXTT5=
EXTT6=
EXTT7=
EXTT8=
EXTT9=
PLAYORDER=
